<svg id="Layer_1" data-name="Layer 1" xmlns="http://www.w3.org/2000/svg" viewBox="0 0 100 13"><path d="M10.65,6.51a7.36,7.36,0,0,1-.5,2.82,5.22,5.22,0,0,1-1.39,2,5.82,5.82,0,0,1-2.2,1.18,9.8,9.8,0,0,1-2.91.4c-.49,0-1.07,0-1.72-.06A13.58,13.58,0,0,1,0,12.59V.45A15.37,15.37,0,0,1,2,.21C2.66.16,3.24.14,3.74.14A10.38,10.38,0,0,1,6.57.5,5.68,5.68,0,0,1,8.75,1.64a4.89,4.89,0,0,1,1.4,2A7.64,7.64,0,0,1,10.65,6.51Zm-7.91,4a2.76,2.76,0,0,0,.44,0h.61a4,4,0,0,0,3-1.06,4.12,4.12,0,0,0,1-2.93,4.14,4.14,0,0,0-1-3,3.94,3.94,0,0,0-3-1H3.3l-.56,0Z"/><path d="M19.59,12.75c-.14-.43-.28-.88-.44-1.34l-.46-1.36H13.94c-.15.46-.31.91-.46,1.37s-.3.9-.43,1.33H10.21c.45-1.34.89-2.58,1.3-3.72s.81-2.22,1.2-3.22.78-2,1.16-2.87.78-1.79,1.19-2.65h2.6c.4.86.79,1.74,1.18,2.65S19.61,4.8,20,5.81,20.8,7.89,21.21,9s.85,2.38,1.31,3.72ZM16.3,3.11c-.06.18-.15.43-.27.74s-.25.67-.4,1.08l-.5,1.35c-.19.49-.38,1-.57,1.54H18L17.5,6.27c-.18-.49-.34-.94-.5-1.35s-.29-.77-.41-1.08Z"/><path d="M26.94.14a7.43,7.43,0,0,1,4.19,1,3.5,3.5,0,0,1,1.45,3.1A3.56,3.56,0,0,1,32,6.37a3.86,3.86,0,0,1-1.69,1.29c.24.31.5.67.77,1.07s.53.82.79,1.26.52.89.77,1.36.47.94.68,1.4H30.26c-.22-.41-.45-.82-.67-1.24s-.47-.83-.71-1.23-.48-.76-.71-1.12-.47-.67-.71-1H26.11v4.55H23.38V.47A13.52,13.52,0,0,1,25.23.22C25.87.17,26.44.14,26.94.14Zm.16,2.4h-.54l-.45,0V6h.78a4.52,4.52,0,0,0,2.21-.4,1.43,1.43,0,0,0,.66-1.34,1.38,1.38,0,0,0-.67-1.31A4.08,4.08,0,0,0,27.1,2.54Z"/><path d="M43.56.29V2.68H39.9V12.75H37.16V2.68H33.5V.29Z"/><path d="M55.79,6.51a7.8,7.8,0,0,1-.47,2.81,5.71,5.71,0,0,1-1.27,2,5.26,5.26,0,0,1-1.92,1.24,6.94,6.94,0,0,1-2.39.41,6.75,6.75,0,0,1-2.35-.41,5.38,5.38,0,0,1-1.93-1.24,5.77,5.77,0,0,1-1.3-2,7.59,7.59,0,0,1-.47-2.81,7.44,7.44,0,0,1,.49-2.82,6.3,6.3,0,0,1,1.32-2A5.56,5.56,0,0,1,47.43.41,6.61,6.61,0,0,1,49.74,0a6.79,6.79,0,0,1,2.35.41A5.47,5.47,0,0,1,54,1.65a5.92,5.92,0,0,1,1.29,2A7.64,7.64,0,0,1,55.79,6.51Zm-9.28,0a5.63,5.63,0,0,0,.22,1.65,4,4,0,0,0,.63,1.27,2.86,2.86,0,0,0,1,.82,3.14,3.14,0,0,0,1.37.29,3.19,3.19,0,0,0,1.36-.29,2.78,2.78,0,0,0,1-.82,3.6,3.6,0,0,0,.63-1.27A5.63,5.63,0,0,0,53,6.51a5.7,5.7,0,0,0-.22-1.66,3.57,3.57,0,0,0-.63-1.28,2.78,2.78,0,0,0-1-.82,3.19,3.19,0,0,0-1.36-.29,3,3,0,0,0-1.37.3,2.89,2.89,0,0,0-1,.83,4,4,0,0,0-.63,1.27A5.73,5.73,0,0,0,46.51,6.51Z"/><path d="M65.13,10.34v2.41H57V.29h2.74V10.34Z"/><path d="M77.06,6.51a7.8,7.8,0,0,1-.47,2.81,5.57,5.57,0,0,1-1.27,2,5.09,5.09,0,0,1-1.92,1.24A6.94,6.94,0,0,1,71,13a6.79,6.79,0,0,1-2.35-.41,5.38,5.38,0,0,1-1.93-1.24,5.77,5.77,0,0,1-1.3-2A7.8,7.8,0,0,1,65,6.51a7.44,7.44,0,0,1,.49-2.82,6.3,6.3,0,0,1,1.32-2A5.56,5.56,0,0,1,68.7.41,6.61,6.61,0,0,1,71,0a6.79,6.79,0,0,1,2.35.41,5.38,5.38,0,0,1,1.93,1.24,6.1,6.1,0,0,1,1.3,2A7.86,7.86,0,0,1,77.06,6.51Zm-9.28,0A6,6,0,0,0,68,8.16a4,4,0,0,0,.63,1.27,2.86,2.86,0,0,0,1,.82,3.36,3.36,0,0,0,2.73,0,2.89,2.89,0,0,0,1-.82A4,4,0,0,0,74,8.16a6,6,0,0,0,.22-1.65A6.06,6.06,0,0,0,74,4.85a3.93,3.93,0,0,0-.63-1.28,2.89,2.89,0,0,0-1-.82A3.15,3.15,0,0,0,71,2.46a3,3,0,0,0-1.37.3,2.89,2.89,0,0,0-1,.83A4,4,0,0,0,68,4.86,6.1,6.1,0,0,0,67.78,6.51Z"/><path d="M84.21,2.45a3.31,3.31,0,0,0-2.76,1.08,4.78,4.78,0,0,0-.85,3,6.08,6.08,0,0,0,.21,1.66,3.7,3.7,0,0,0,.63,1.29,2.79,2.79,0,0,0,1.06.83,3.38,3.38,0,0,0,1.47.3l.78,0a3,3,0,0,0,.57-.07V6.17h2.74v6.16a9.36,9.36,0,0,1-1.58.43,13.62,13.62,0,0,1-2.69.22,6.8,6.8,0,0,1-2.48-.43,5.27,5.27,0,0,1-1.9-1.26,5.65,5.65,0,0,1-1.22-2,8.31,8.31,0,0,1-.43-2.75,7.66,7.66,0,0,1,.47-2.77,6.1,6.1,0,0,1,1.3-2A5.49,5.49,0,0,1,81.47.43,6.49,6.49,0,0,1,83.85,0,9.12,9.12,0,0,1,85.4.12a7.3,7.3,0,0,1,1.19.27,5.06,5.06,0,0,1,.83.31c.21.11.37.19.46.25L87.09,3.2a7.06,7.06,0,0,0-1.29-.53A5.32,5.32,0,0,0,84.21,2.45Z"/><path d="M94.35,5.4c.49-.85,1-1.7,1.4-2.55S96.61,1.15,97,.29h3q-1,2-2.07,3.9C97.22,5.45,96.46,6.71,95.67,8v4.77H92.93V8q-1.19-1.9-2.27-3.81c-.72-1.27-1.41-2.58-2.08-3.92h3.18c.37.86.77,1.71,1.21,2.56S93.86,4.55,94.35,5.4Z"/></svg>