<svg id="Layer_1" data-name="Layer 1" xmlns="http://www.w3.org/2000/svg" viewBox="0 0 500 147.91"><defs><style>.cls-1{fill:#25a9e0}</style></defs><path class="cls-1" d="M150.93 97.35a8 8 0 0 1-.84-4.06 27.48 27.48 0 0 1 .69-5.06L172.07 0l-23.75 3.68L128.87 85a62.77 62.77 0 0 0-1.76 13.56 22.48 22.48 0 0 0 2.6 11.26 18.33 18.33 0 0 0 8.89 7.74q6.2 2.83 17.08 2.83l4.6-18.84a17.65 17.65 0 0 1-6.21-1.38 6.57 6.57 0 0 1-3.14-2.82zM63.95 108.83c2.23.51 4.51 1 6.9 1.39 4.51.77 9.8 1.55 14.81 2.19 1.53-4.91 3-10.35 4.45-16.36L99.45 57h26.81l4.6-18.69h-27l.92-4a23 23 0 0 1 5.59-10.72q4.06-4.29 12.48-4.29a27.08 27.08 0 0 1 5.59.54q2.53.54 5.29 1.3l8.12-17.77a38.63 38.63 0 0 0-6.85-2.3A47.51 47.51 0 0 0 123.81 0q-18.08 0-28 8.88T82 34l-15.94 66.8c-.58 2.52-1.31 5.2-2.11 8.03zM51.42 137.15a42.83 42.83 0 0 1-6.5 7.76l20.38 2.91a33.91 33.91 0 0 0 5.23-4.95c-2.31-.55-4.6-1.13-6.88-1.76-4.31-1.2-8.35-2.52-12.23-3.96zM188.73 25.66a14 14 0 0 0 8.58 2.83 15.07 15.07 0 0 0 6.05-1.22 16.6 16.6 0 0 0 5-3.29 16 16 0 0 0 3.45-4.9 14.35 14.35 0 0 0 1.3-6.05q0-5.82-3.83-8.66a14.08 14.08 0 0 0-8.58-2.83 15.1 15.1 0 0 0-6.05 1.22 16.59 16.59 0 0 0-5 3.29A16 16 0 0 0 186.2 11a14.32 14.32 0 0 0-1.3 6q0 5.83 3.83 8.66zM182.75 38.3l-19.36 82.11h22.67l19.52-82.11h-22.83zM271.17 46.19A27.53 27.53 0 0 0 261 39.07a38.1 38.1 0 0 0-14.79-2.6 94.31 94.31 0 0 0-17.08 1.45 133.18 133.18 0 0 0-14 3.29l-25.43 106h22.68l6.89-27.73a59.78 59.78 0 0 0 10.42.92 51.57 51.57 0 0 0 19.84-3.75 45.63 45.63 0 0 0 15.63-10.49 48.51 48.51 0 0 0 10.19-16A55 55 0 0 0 279 69.7a42.64 42.64 0 0 0-1.91-12.94 29 29 0 0 0-5.92-10.57zM254.4 83.72a28.49 28.49 0 0 1-5.4 9.57 23.87 23.87 0 0 1-8.35 6.21 26.07 26.07 0 0 1-10.87 2.22 28.79 28.79 0 0 1-6.44-.61l10.76-44.58a43.77 43.77 0 0 1 9.19-.92q7.2 0 10.11 4.6a20.51 20.51 0 0 1 2.91 11.18 37.85 37.85 0 0 1-1.91 12.33zM352.1 45.5a26 26 0 0 0-10-6.9 37.2 37.2 0 0 0-14-2.45 39.14 39.14 0 0 0-19.3 4.67 47.16 47.16 0 0 0-14.25 12 52.52 52.52 0 0 0-8.81 16.54 59.12 59.12 0 0 0-3 18.39 42.72 42.72 0 0 0 2 13.4 29.72 29.72 0 0 0 5.9 10.5 26 26 0 0 0 9.88 6.89 37 37 0 0 0 14.12 2.46 40.18 40.18 0 0 0 19.68-4.67 45 45 0 0 0 14.17-12 53.22 53.22 0 0 0 8.58-16.54A60.66 60.66 0 0 0 360 69.4a42.75 42.75 0 0 0-2-13.4 29.84 29.84 0 0 0-5.9-10.5zM336 81.73a36.35 36.35 0 0 1-3.91 9.73 24.92 24.92 0 0 1-6.43 7.35 14.27 14.27 0 0 1-8.88 2.91q-6.44 0-8.89-4.21t-2.45-12a42.09 42.09 0 0 1 1.3-10 36.17 36.17 0 0 1 3.91-9.73 24.92 24.92 0 0 1 6.44-7.35 14.27 14.27 0 0 1 8.91-2.98q6.43 0 8.88 4.21t2.45 12A42.08 42.08 0 0 1 336 81.73zM432.72 84.1l10.88-45.8h-22.83l-10 41.82q-.77 3.52-1.45 7.74t-1 8a22.65 22.65 0 0 1-6.36 4.52 16.06 16.06 0 0 1-6.51 1.31q-4.13 0-6.05-1.91a8.54 8.54 0 0 1-2.37-4.9 21.56 21.56 0 0 1 .07-6.52q.53-3.52 1.31-6.89l10.26-43.2h-22.78L365.47 81.8a52.3 52.3 0 0 0-1.61 14.4 29.45 29.45 0 0 0 3 12.49 21.11 21.11 0 0 0 8.35 8.73q5.59 3.29 14.63 3.29a30 30 0 0 0 12-2.3 42.93 42.93 0 0 0 9.65-5.67 74.54 74.54 0 0 0 3.22 7.51l20.29-2.91a62.61 62.61 0 0 1-3.53-15.7 51 51 0 0 1 1.25-17.54zM470.13 57h25.27l4.6-18.7h-25.43l5.82-23.75-23.75 3.68-15 63.42a80.36 80.36 0 0 0-2.14 14.86 27.13 27.13 0 0 0 2.13 12.49 18.13 18.13 0 0 0 8.28 8.58q5.82 3.14 16.39 3.14a57.73 57.73 0 0 0 12.7-1.23 80.91 80.91 0 0 0 10-2.91l-1.68-17.46a52.43 52.43 0 0 1-7 1.91 36.24 36.24 0 0 1-7.12.69 15.28 15.28 0 0 1-6.74-1.23A7.06 7.06 0 0 1 463 97a10.82 10.82 0 0 1-.77-5.28 37.29 37.29 0 0 1 1.15-6.59z"/><path class="cls-1" d="M112.88 101.49c-.82 4.7-1.7 8.69-2.58 12.09-.24.93-.48 1.79-.73 2.63s-.53 1.8-.8 2.63h-.43c-1.69.09-4.17.13-7.34.14a165.44 165.44 0 0 1-17-1.56c-4.74-.62-9.66-1.35-14-2.1-2.44-.42-5-.93-7.55-1.53-3-.7-6.17-1.53-9.34-2.54a95.53 95.53 0 0 1-17.53-7.4c-1.45-.76-2.81-1.64-4.21-2.49s-2.72-1.81-4-2.82A48.83 48.83 0 0 1 20.25 92c-4.19-4.79-7-10.46-7.38-16.55s1.66-12.41 5.47-18A50.33 50.33 0 0 1 25 49.72c1.22-1.22 2.56-2.33 3.87-3.45s2.71-2.15 4.14-3.12a99.6 99.6 0 0 1 17.61-9.82A134.23 134.23 0 0 1 68 27.13c1.82-.52 3.56-.94 5.3-1.37.58-1.21 1.25-2.42 2-3.7-2.61.32-5.34.71-8.19 1.22a139.63 139.63 0 0 0-18.57 4.57 107.07 107.07 0 0 0-19.86 8.56c-1.67.9-3.29 2-4.94 3s-3.24 2.21-4.79 3.46A60.35 60.35 0 0 0 10 51.31a44.33 44.33 0 0 0-6.89 11A37.21 37.21 0 0 0 0 75.47a37.91 37.91 0 0 0 2 13.62 46.52 46.52 0 0 0 6.1 12 64 64 0 0 0 8.45 9.67c1.51 1.47 3.1 2.77 4.67 4.09s3.21 2.5 4.86 3.62a113.61 113.61 0 0 0 19.94 11c2.75 1.2 5.46 2.24 8.14 3.21 3.74 1.35 7.39 2.51 10.89 3.5 3.1.86 6.09 1.6 8.94 2.23 6.51 1.45 12.28 2.34 17.06 2.94l-2.69 2.24-2.71 2.25-2.5 2.08a158 158 0 0 0 16.38-.48c3.37-.26 7.09-.64 11-1.2 14.49-2.06 31.6-6.52 43-16.13.05-.05-32.28 3.42-40.65-28.62z"/></svg>