<svg xmlns="http://www.w3.org/2000/svg" viewBox="0 0 132 100">
    <defs>
        <style>
            .cls-1 {
                fill: #A3E635;
            }
        </style>
    </defs>
    <path class="cls-1" d="M105.12,61.94l.74-.27V75L63.37,100,29.08,79.83c3.42,0,7-.18,10.78-.52v.89H63A34.41,34.41,0,0,0,75.67,78a28.62,28.62,0,0,0,9.44-6l1.16.73a2,2,0,0,0,1,.29,2.06,2.06,0,0,0,.7-.12q2.45-.94,4.87-1.92A2.3,2.3,0,0,0,94,70.1l2.25-3.37,1.44-2.17,6.38-2.46h.11A3,3,0,0,0,105.12,61.94Zm-35-29.7A17.63,17.63,0,0,0,63,30.9H53.77V69.49H63a17.63,17.63,0,0,0,7.08-1.34,14.27,14.27,0,0,0,5.25-3.83,17.12,17.12,0,0,0,3.29-6.07,26.28,26.28,0,0,0,1.15-8.08,26.13,26.13,0,0,0-1.15-8,17.12,17.12,0,0,0-3.29-6.07A14.27,14.27,0,0,0,70.09,32.24Zm47.19,20.21c-.16-.17-.32-.1-.49,0L103.92,57.8a1.69,1.69,0,0,0-.91.59.43.43,0,0,1-.21.12l-6.62,2.65a.88.88,0,0,1-.62,0l-6.64-1.63a.56.56,0,0,0-.34,0l-5,2a.4.4,0,0,0-.2.22c-.45,1.62-.89,3.25-1.34,4.87-1,.32-2,.65-3,1C55.44,75,33.34,76.24,20.87,71.9,15.56,70.05,12,67.19,10.8,63.35,9,57.55,13,50.53,20.87,43.59V70.23c4.55,1.68,10.65,2.6,17.94,2.6l1,0V20.19H63a34,34,0,0,1,12.66,2.26,28.93,28.93,0,0,1,9.75,6.26,27.84,27.84,0,0,1,6.28,9.5,31.43,31.43,0,0,1,2.23,12,33,33,0,0,1-1.13,8.74l3,.73L100,58l2.07-.83a3.44,3.44,0,0,1,1.2-.75l.1,0,2.54-1.05V25L63.37,0,20.87,25V40.71C6.22,50.15-1.93,60.09.39,67.64c2,6.64,11.8,10.19,26,10.58,14.39.4,33.34-2.48,53.35-8.72l2.9-.94,4.5,2.83a.45.45,0,0,0,.36,0c1.62-.63,3.24-1.26,4.86-1.91a.85.85,0,0,0,.37-.28c1.29-1.94,2.57-3.88,3.86-5.81a.53.53,0,0,1,.26-.21l6.81-2.62a1.09,1.09,0,0,1,.26-.05,3.29,3.29,0,0,0,.71-.08Q111.32,58,118,55.54a.34.34,0,0,0,.26-.38,4.44,4.44,0,0,0-.5-1.79C117.65,53.05,117.46,52.76,117.28,52.45ZM132,48.22c-.17,0-.34.06-.49.11-.73.24-1.46.47-2.18.73l-6.56,2.45a.25.25,0,0,1-.37-.11,1.29,1.29,0,0,0-.44-.43c-.26-.13-.51-.41-.83-.29-1.21.47-2.41,1-3.65,1.47a5.7,5.7,0,0,1,1.22,3.16l3.71-1.43a.37.37,0,0,0,.18-.21,1.93,1.93,0,0,0,.2-1.39l.22-.1c1.75-.72,3.5-1.42,5.25-2.15,1.15-.49,2.29-1,3.43-1.52a2.39,2.39,0,0,0,.34-.21Z" />
</svg>