<svg xmlns="http://www.w3.org/2000/svg" viewBox="0 0 385.81 499.96">
    <path fill="#a3e635" d="M443.08,123.35c-.74-11.7-6.63-30-11.46-35.68-1.66-2-8-6.93-13.84-11.1-12.06-8.32-17.5-10.71-72.14-30.56-17.74-6.57-43.76-16.11-57.71-21.27l-25.29-9.53.26-6.31c.36-7.6-1.64-9.15-11.12-8.82-8.1.17-9.7,1.56-9.62,8.46,0,5-.1,5.22-5.11,7.1-2.77,1.05-35.25,13.25-72.21,27.1-60.29,22.66-68.4,26-79.59,33.71C78.38,81.07,71.43,86.24,70,87.86c-3.32,3.45-8.77,16.7-11,26.73a95.28,95.28,0,0,0-1.73,14.48c-.08,8.73,13,190.69,13.92,193,.45,1.06,138.35,136.63,178.9,175.81l2.18,2.14c.41-1,72.95-74,142.18-142.5,11.52-11.32,24.49-24.39,29-29l8.24-8.3,6.06-93.17C441.06,175.83,443.5,129.07,443.08,123.35ZM250.22,341.64A125.8,125.8,0,1,1,376,215.84,125.79,125.79,0,0,1,250.22,341.64Z" transform="translate(-57.31 -0.04)" />
    <circle fill="#a3e635" cx="250.22" cy="215.84" r="52.89" transform="translate(-136.65 240.11) rotate(-45)" />
</svg>